<svg
   viewBox="0 0 448.92838 232.26704"
   height="232.26704"
   xmlns="http://www.w3.org/2000/svg">
  <path
     d="m 392.59028,203.64276 -0.078,-78.16083 -12.4968,43.66556 -12.48072,-43.46632 -0.0757,59.33186 -40.7495,-30.56252 3.08879,-2.31583 -0.14141,-152.12981 38.73254,0.10085 11.6105,40.66978 11.6274,-40.72434 57.301,0.18618 -18.8027,14.0495 -0.034,217.63134 z M 19.02499,14.25091 0,0 l 107.23531,0.14536 12.27354,9.37597 0.0101,142.56247 3.25145,2.35509 -103.72082,77.82816 z m 62.93519,111.22171 -0.0409,-82.27481 -2.87465,-2.34739 -22.29888,0.10789 -0.0489,103.45979 z m 40.72369,22.1208 -0.0192,-138.0869 12.57888,-9.42655 75.27495,-0.004 12.55398,9.46535 0.0463,159.78714 -35.60016,26.77535 z m 59.62444,-106.82449 -18.98538,0.13166 -2.96579,2.2786 0.0424,82.33106 24.93696,18.70364 0.0667,-100.98974 z m 44.04003,128.70895 -0.0912,-160.01012 12.5376,-9.41648 75.37455,0.0721 12.61764,9.42722 -0.0867,137.76714 -64.48954,48.75486 z m 62.70335,-44.02225 -0.008,-82.31061 -3.17258,-2.42448 -18.95561,0.0622 -3.0476,2.3468 0.18816,100.82895 z"
     fill="#000000" />
</svg>
